<?xml version="1.0" encoding="UTF-8"?>
<svg xmlns="http://www.w3.org/2000/svg" xmlns:xlink="http://www.w3.org/1999/xlink" width="25px" height="25px" viewBox="0 0 25 25" version="1.1">
<defs>
<linearGradient id="linear0" gradientUnits="userSpaceOnUse" x1="-838.041016" y1="660.580994" x2="-838.041016" y2="660.342712" gradientTransform="matrix(104.123279,0,0,-104.123279,87272.071917,68781.859976)">
<stop offset="0" style="stop-color:rgb(16.470588%,67.058824%,93.333333%);stop-opacity:1;"/>
<stop offset="1" style="stop-color:rgb(13.333333%,61.960784%,85.098039%);stop-opacity:1;"/>
</linearGradient>
</defs>
<g id="surface1">
<path style=" stroke:none;fill-rule:evenodd;fill:url(#linear0);" d="M 25.011719 12.503906 C 25.011719 5.597656 19.410156 0 12.503906 0 C 5.597656 0 0 5.597656 0 12.503906 C 0 19.410156 5.597656 25.011719 12.503906 25.011719 C 19.410156 25.011719 25.011719 19.410156 25.011719 12.503906 Z M 25.011719 12.503906 "/>
<path style=" stroke:none;fill-rule:evenodd;fill:rgb(100%,100%,100%);fill-opacity:1;" d="M 5.652344 12.371094 C 9.296875 10.789062 11.722656 9.734375 12.941406 9.226562 C 16.410156 7.777344 17.140625 7.527344 17.605469 7.519531 C 17.710938 7.519531 17.941406 7.539062 18.097656 7.664062 C 18.222656 7.769531 18.253906 7.902344 18.273438 8.007812 C 18.292969 8.109375 18.316406 8.328125 18.292969 8.496094 C 18.105469 10.476562 17.292969 15.273438 16.878906 17.480469 C 16.703125 18.417969 16.359375 18.730469 16.023438 18.761719 C 15.296875 18.824219 14.742188 18.285156 14.046875 17.824219 C 12.941406 17.109375 12.328125 16.660156 11.253906 15.953125 C 10.015625 15.140625 10.820312 14.691406 11.527344 13.964844 C 11.714844 13.777344 14.910156 10.859375 14.972656 10.601562 C 14.984375 10.570312 14.984375 10.445312 14.910156 10.382812 C 14.835938 10.320312 14.734375 10.339844 14.648438 10.359375 C 14.535156 10.382812 12.785156 11.546875 9.382812 13.847656 C 8.882812 14.191406 8.433594 14.359375 8.027344 14.347656 C 7.582031 14.335938 6.726562 14.097656 6.082031 13.890625 C 5.300781 13.640625 4.675781 13.503906 4.726562 13.066406 C 4.757812 12.839844 5.070312 12.609375 5.652344 12.371094 Z M 5.652344 12.371094 "/>
</g>
</svg>
